<?xml version="1.0" encoding="UTF-8" standalone="no"?>
<svg
   width="24"
   height="24"
   id="svg9"
   version="1.1"
   sodipodi:docname="process-working-symbolic.svg"
   inkscape:version="1.3.2 (091e20ef0f, 2023-11-25, custom)"
   xmlns:inkscape="http://www.inkscape.org/namespaces/inkscape"
   xmlns:sodipodi="http://sodipodi.sourceforge.net/DTD/sodipodi-0.dtd"
   xmlns="http://www.w3.org/2000/svg"
   xmlns:svg="http://www.w3.org/2000/svg"
   xmlns:rdf="http://www.w3.org/1999/02/22-rdf-syntax-ns#"
   xmlns:cc="http://creativecommons.org/ns#"
   xmlns:dc="http://purl.org/dc/elements/1.1/">
  <metadata
     id="metadata8">
    <rdf:RDF>
      <cc:Work
         rdf:about="">
        <dc:format>image/svg+xml</dc:format>
        <dc:type
           rdf:resource="http://purl.org/dc/dcmitype/StillImage" />
        <dc:title />
      </cc:Work>
    </rdf:RDF>
  </metadata>
  <sodipodi:namedview
     pagecolor="#ffffff"
     bordercolor="#5DF4FE"
     borderopacity="1"
     objecttolerance="10"
     gridtolerance="10"
     guidetolerance="10"
     inkscape:pageopacity="0"
     inkscape:pageshadow="2"
     inkscape:window-width="1964"
     inkscape:window-height="1255"
     id="namedview6"
     showgrid="false"
     inkscape:zoom="18.762797"
     inkscape:cx="4.3437021"
     inkscape:cy="17.321511"
     inkscape:window-x="0"
     inkscape:window-y="0"
     inkscape:window-maximized="1"
     inkscape:current-layer="svg9"
     inkscape:showpageshadow="2"
     inkscape:pagecheckerboard="0"
     inkscape:deskcolor="#d1d1d1" />
  <defs
     id="defs3">
    <style
       id="current-color-scheme" />
  </defs>
  <g
     id="busywidget"
     transform="matrix(0.74351341,0,0,0.74351341,-28.327862,-186.79068)"
     style="stroke-width:5.08333">
    <path
       d="m 54.239584,251.22706 a 16.139544,16.139544 0 0 0 -16.139583,16.13959 16.139544,16.139544 0 0 0 16.139583,16.13958 16.139544,16.139544 0 0 0 16.139584,-16.13958 16.139544,16.139544 0 0 0 -16.139584,-16.13959 z m 0,1.1312 A 15.008342,15.008342 0 0 1 69.24797,267.36665 15.008342,15.008342 0 0 1 54.239584,282.37503 15.008342,15.008342 0 0 1 39.231198,267.36665 15.008342,15.008342 0 0 1 54.239584,252.35826 Z"
       style="opacity:1;fill:#ff5048;stroke-width:1.34631;stroke-linejoin:bevel"
       id="path2" />
    <circle
       style="fill:#5df4fe;stroke-width:1.34631;stroke-linejoin:bevel"
       id="circle2"
       cx="54.239544"
       cy="267.36664"
       r="12.991627" />
    <circle
       style="fill:#040a10;stroke-width:1.34631;stroke-linejoin:bevel"
       id="circle3"
       cx="54.239544"
       cy="267.36664"
       r="5.0083413" />
    <path
       d="m 54.239585,260.90546 a 6.4611719,6.4611719 0 0 0 -6.461188,6.46119 6.4611719,6.4611719 0 0 0 6.461188,6.46119 6.4611719,6.4611719 0 0 0 6.461187,-6.46119 6.4611719,6.4611719 0 0 0 -6.461187,-6.46119 z m 0,0.45285 a 6.0083158,6.0083158 0 0 1 6.008333,6.00834 6.0083158,6.0083158 0 0 1 -6.008333,6.00833 6.0083158,6.0083158 0 0 1 -6.008334,-6.00833 6.0083158,6.0083158 0 0 1 6.008334,-6.00834 z"
       style="opacity:1;fill:#14101f;stroke-width:1.34631;stroke-linejoin:bevel"
       id="path3" />
    <rect
       style="opacity:1;fill:#14101f;stroke-width:1.34631;stroke-linejoin:bevel"
       id="rect3"
       width="4"
       height="4.8527279"
       x="44.247917"
       y="264.94861" />
    <rect
       style="fill:#14101f;stroke-width:1.34631;stroke-linejoin:bevel"
       id="rect3-8"
       width="4"
       height="1.9999793"
       x="41.247917"
       y="266.37497" />
    <rect
       style="fill:#14101f;stroke-width:1.34631;stroke-linejoin:bevel"
       id="rect3-8-8"
       width="4"
       height="1.9999793"
       x="63.231171"
       y="266.36664" />
    <rect
       style="fill:#14101f;stroke-width:1.34631;stroke-linejoin:bevel"
       id="rect3-0"
       width="4"
       height="4.7526407"
       x="60.247917"
       y="264.99033" />
    <rect
       style="fill:#5df4fe;stroke-width:1.34631;stroke-linejoin:bevel"
       id="rect3-8-5"
       width="1.999969"
       height="1.9999793"
       x="57.247917"
       y="266.36664" />
    <rect
       style="fill:#5df4fe;stroke-width:1.34631;stroke-linejoin:bevel"
       id="rect3-8-5-0"
       width="1.999969"
       height="1.9999793"
       x="49.231201"
       y="266.36664" />
    <circle
       style="opacity:1;fill:#5df4fe;stroke-width:1.34631;stroke-linejoin:bevel"
       id="path4"
       cx="51.247917"
       cy="267.36661"
       r="1.0083735" />
    <circle
       style="fill:#5df4fe;stroke-width:1.34631;stroke-linejoin:bevel"
       id="path4-9"
       cx="57.239544"
       cy="267.36664"
       r="1.0083735" />
  </g>
</svg>
