<?xml version="1.0" encoding="UTF-8" standalone="no"?>
<svg
   width="48"
   height="48"
   viewBox="0 0 12.7 12.7"
   version="1.1"
   id="svg4"
   sodipodi:docname="folder.svg"
   inkscape:version="1.3.2 (091e20ef0f, 2023-11-25, custom)"
   xmlns:inkscape="http://www.inkscape.org/namespaces/inkscape"
   xmlns:sodipodi="http://sodipodi.sourceforge.net/DTD/sodipodi-0.dtd"
   xmlns="http://www.w3.org/2000/svg"
   xmlns:svg="http://www.w3.org/2000/svg">
  <sodipodi:namedview
     id="namedview1"
     pagecolor="#ffffff"
     bordercolor="#000000"
     borderopacity="0.25"
     inkscape:showpageshadow="2"
     inkscape:pageopacity="0.0"
     inkscape:pagecheckerboard="0"
     inkscape:deskcolor="#d1d1d1"
     inkscape:zoom="15.488281"
     inkscape:cx="22.371753"
     inkscape:cy="24.276419"
     inkscape:window-width="1998"
     inkscape:window-height="1219"
     inkscape:window-x="0"
     inkscape:window-y="0"
     inkscape:window-maximized="1"
     inkscape:current-layer="svg4" />
  <defs
     id="defs8">
    <style
       id="current-color-scheme"
       type="text/css">
      .ColorScheme-Highlight {
        color:#5DF4FE;
      }
  </style>
  </defs>
  <path
     class="ColorScheme-Highlight"
     style="fill:#5DF4FE"
     d="M 24 0 A 24 24 0 0 0 0 24 A 24 24 0 0 0 24 48 A 24 24 0 0 0 48 24 A 24 24 0 0 0 24 0 z M 24 3 A 21 21 0 0 1 45 24 A 21 21 0 0 1 24 45 A 21 21 0 0 1 3 24 A 21 21 0 0 1 24 3 z M 10 12 C 8.8919997 12 8 12.892 8 14 L 8 34 C 8 35.108 8.8919997 36 10 36 L 38 36 C 39.107999 36 40 35.108 40 34 L 40 21 L 40 20 L 22 20 L 18 24 L 17 24 L 11 24 C 10.446 24 10 23.554 10 23 C 10 22.446 10.446 22 11 22 L 17 22 L 21 18 L 24 18 L 40 18 L 40 17 C 40 15.892 39.107999 15 38 15 L 22 15 L 19 12 L 10 12 z "
     transform="scale(0.26458333)"
     id="path839" />
</svg>
