<?xml version="1.0" encoding="UTF-8" standalone="no"?>
<svg
   width="24"
   height="24"
   version="1.1"
   id="svg7"
   sodipodi:docname="brightness-high.svg"
   inkscape:version="1.3.2 (091e20ef0f, 2023-11-25, custom)"
   xmlns:inkscape="http://www.inkscape.org/namespaces/inkscape"
   xmlns:sodipodi="http://sodipodi.sourceforge.net/DTD/sodipodi-0.dtd"
   xmlns="http://www.w3.org/2000/svg"
   xmlns:svg="http://www.w3.org/2000/svg"
   xmlns:rdf="http://www.w3.org/1999/02/22-rdf-syntax-ns#"
   xmlns:cc="http://creativecommons.org/ns#"
   xmlns:dc="http://purl.org/dc/elements/1.1/">
  <metadata
     id="metadata11">
    <rdf:RDF>
      <cc:Work
         rdf:about="">
        <dc:format>image/svg+xml</dc:format>
        <dc:type
           rdf:resource="http://purl.org/dc/dcmitype/StillImage" />
      </cc:Work>
    </rdf:RDF>
  </metadata>
  <sodipodi:namedview
     pagecolor="#fff4fe"
     bordercolor="#5DF4FE"
     borderopacity="1"
     objecttolerance="10"
     gridtolerance="10"
     guidetolerance="10"
     inkscape:pageopacity="0"
     inkscape:pageshadow="2"
     inkscape:window-width="2000"
     inkscape:window-height="1219"
     id="namedview9"
     showgrid="false"
     inkscape:zoom="16.59375"
     inkscape:cx="6.4482109"
     inkscape:cy="9.5819209"
     inkscape:window-x="0"
     inkscape:window-y="0"
     inkscape:window-maximized="1"
     inkscape:current-layer="svg7"
     inkscape:showpageshadow="2"
     inkscape:pagecheckerboard="0"
     inkscape:deskcolor="#d1d1d1" />
  <defs
     id="defs3">
    <style
       id="current-color-scheme" />
  </defs>
  <path
     d="M 11.25172,0.07000022 V 2.7787745 h 1.496561 V 0.07000022 Z M 4.0532649,3.0032586 2.9757414,4.0807821 4.8913387,6.0263106 5.9688622,4.9188559 Z m 15.8934711,0 -1.915597,1.9155973 1.077523,1.1224203 1.915598,-1.9604941 z m -7.946735,1.5564228 a 7.482802,7.482802 0 1 0 0,14.9656036 7.482802,7.482802 0 0 0 0,-14.9656036 z m 0,1.4965604 V 18.028725 a 5.9862416,5.9862416 0 0 1 0,-11.9724832 z M 0.0275174,11.294203 v 1.496561 h 2.7087743 v -1.496561 z m 21.2361916,0 v 1.496561 h 2.708775 v -1.496561 h -2.693809 z m -16.3723703,6.779419 -1.9155973,1.915597 1.0775235,1.077524 1.9155973,-1.915598 z m 14.2173233,0 -1.077523,1.077523 1.915597,1.915598 1.077524,-1.077524 z m -7.856942,3.23257 v 2.693809 h 1.496561 v -2.693809 z"
     id="path5"
     inkscape:connector-curvature="0"
     style="color:#5df4fe;fill:currentColor;stroke-width:1" />
</svg>
