<?xml version="1.0" encoding="UTF-8" standalone="no"?>
<svg
   width="48"
   height="48"
   viewBox="0 0 12.7 12.7"
   version="1.1"
   id="svg4"
   sodipodi:docname="B.svg"
   inkscape:version="1.3.2 (091e20ef0f, 2023-11-25, custom)"
   xml:space="preserve"
   xmlns:inkscape="http://www.inkscape.org/namespaces/inkscape"
   xmlns:sodipodi="http://sodipodi.sourceforge.net/DTD/sodipodi-0.dtd"
   xmlns="http://www.w3.org/2000/svg"
   xmlns:svg="http://www.w3.org/2000/svg"><sodipodi:namedview
     id="namedview6"
     pagecolor="#ffffff"
     bordercolor="#000000"
     borderopacity="0.25"
     inkscape:showpageshadow="2"
     inkscape:pageopacity="0.0"
     inkscape:pagecheckerboard="0"
     inkscape:deskcolor="#d1d1d1"
     showgrid="false"
     inkscape:zoom="9.4827433"
     inkscape:cx="28.209136"
     inkscape:cy="30.792777"
     inkscape:window-width="2013"
     inkscape:window-height="1219"
     inkscape:window-x="0"
     inkscape:window-y="0"
     inkscape:window-maximized="1"
     inkscape:current-layer="g2" /><defs
     id="defs8"><rect
       x="0"
       y="0"
       width="48"
       height="48"
       id="rect1" /><style
       id="current-color-scheme"
       type="text/css">
      .ColorScheme-Highlight {
        color:#5beedc;
      }
  </style><radialGradient
       id="radial-gradient-7"
       cx="578.89026"
       cy="473.31943"
       r="353.94183"
       gradientTransform="matrix(0.01225107,0,0,0.01344018,0.08277413,-0.35622249)"
       gradientUnits="userSpaceOnUse"><stop
         offset="0"
         stop-color="#c2c0c2"
         id="stop372" /><stop
         offset="1"
         stop-color="#ebebeb"
         id="stop374" /></radialGradient><rect
       x="0"
       y="0"
       width="48"
       height="48"
       id="rect2" /><rect
       x="0"
       y="0"
       width="48"
       height="48"
       id="rect3" /></defs><path
     class="ColorScheme-Highlight"
     style="fill:#5df4fe"
     d="M 24,0 C 10.745166,0 0,10.745166 0,24 0,37.254834 10.745166,48 24,48 37.254834,48 48,37.254834 48,24 48,10.745166 37.254834,0 24,0 Z m 0,3 C 35.59798,3 45,12.40202 45,24 45,35.59798 35.59798,45 24,45 12.40202,45 3,35.59798 3,24 3,12.40202 12.40202,3 24,3 Z"
     id="path817"
     inkscape:connector-curvature="0"
     sodipodi:nodetypes="ssssssssss"
     transform="scale(0.26458333)" /><g
     inkscape:groupmode="layer"
     id="g2"
     inkscape:label="Layer 1 copy"
     style="display:inline"><path
       d="m 22.410666,20.75389 h 2.389329 q 0.703999,0 1.002666,-0.277332 0.319999,-0.298667 0.319999,-0.959999 v -1.237331 q 0,-0.661333 -0.319999,-0.938666 -0.32,-0.277332 -1.045332,-0.277332 h -2.346663 q -0.234666,0 -0.234666,0.234666 v 3.221328 q 0,0.234666 0.234666,0.234666 z m 0,-5.88799 h 2.175996 q 0.682666,0 1.002666,-0.277333 0.319999,-0.298666 0.319999,-0.959999 V 12.79657 q 0,-0.661333 -0.319999,-0.938666 -0.298667,-0.298666 -0.981332,-0.298666 h -2.19733 q -0.234666,0 -0.234666,0.234667 v 2.837328 q 0,0.234667 0.234666,0.234667 z m -2.943995,7.701321 V 9.7459078 q 0,-0.4479993 0.447999,-0.4479993 h 5.119992 q 1.68533,0 2.602662,0.8959985 0.917332,0.895999 0.917332,2.559996 v 0.874665 q 0,1.813331 -1.68533,2.346663 0.853332,0.128 1.365331,0.703999 0.511999,0.554666 0.511999,1.599998 v 1.279998 q 0,1.663997 -0.917332,2.559996 -0.917332,0.895998 -2.581329,0.895998 H 19.91467 q -0.447999,0 -0.447999,-0.447999 z"
       id="text2"
       style="-inkscape-font-specification:'Rajdhani Bold';fill:#5df4fe;stroke-width:0.145663;stroke-linecap:square;stroke-linejoin:bevel"
       transform="matrix(0.57216831,0,0,0.57216831,-7.3820444,-2.8942812)"
       aria-label="B" /></g><g
     inkscape:groupmode="layer"
     id="g1"
     inkscape:label="Layer 1 copy"
     style="display:inline"><text
       xml:space="preserve"
       transform="matrix(0.57216831,0,0,0.57216831,-7.3820444,-2.8942812)"
       id="text1"
       style="font-style:normal;font-variant:normal;font-weight:bold;font-stretch:normal;font-size:21.3333px;line-height:1.7;font-family:Rajdhani;-inkscape-font-specification:'Rajdhani Bold';text-align:center;letter-spacing:6.08px;word-spacing:0.03px;writing-mode:lr-tb;text-orientation:sideways;white-space:pre;shape-inside:url(#rect3);fill:#5df4fe;fill-opacity:1;stroke:none;stroke-width:0.145663;stroke-linecap:square;stroke-linejoin:bevel"
       x="0"
       y="0"><tspan
         x="18.080006"
         y="23.01522"
         id="tspan2">B</tspan></text></g></svg>
