<?xml version="1.0" encoding="UTF-8" standalone="no"?>
<svg
   width="48"
   height="48"
   viewBox="0 0 12.7 12.7"
   version="1.1"
   id="svg4"
   sodipodi:docname="DnD.svg"
   inkscape:version="1.4 (e7c3feb100, 2024-10-09)"
   xmlns:inkscape="http://www.inkscape.org/namespaces/inkscape"
   xmlns:sodipodi="http://sodipodi.sourceforge.net/DTD/sodipodi-0.dtd"
   xmlns="http://www.w3.org/2000/svg"
   xmlns:svg="http://www.w3.org/2000/svg">
  <sodipodi:namedview
     id="namedview1"
     pagecolor="#ffffff"
     bordercolor="#000000"
     borderopacity="0.25"
     inkscape:showpageshadow="2"
     inkscape:pageopacity="0.0"
     inkscape:pagecheckerboard="0"
     inkscape:deskcolor="#d1d1d1"
     inkscape:zoom="9.4044672"
     inkscape:cx="3.8811343"
     inkscape:cy="27.540103"
     inkscape:window-width="2504"
     inkscape:window-height="1408"
     inkscape:window-x="0"
     inkscape:window-y="0"
     inkscape:window-maximized="1"
     inkscape:current-layer="svg4" />
  <defs
     id="defs8">
    <style
       id="current-color-scheme"
       type="text/css">
      .ColorScheme-Highlight {
        color:#5DF4FE;
      }
  </style>
  </defs>
  <path
     class="ColorScheme-Highlight"
     style="fill:#5df4fe"
     d="M 24,0 C 10.745166,0 0,10.745166 0,24 0,37.254834 10.745166,48 24,48 37.254834,48 48,37.254834 48,24 48,10.745166 37.254834,0 24,0 Z m 0,3 C 35.59798,3 45,12.40202 45,24 45,35.59798 35.59798,45 24,45 12.40202,45 3,35.59798 3,24 3,12.40202 12.40202,3 24,3 Z"
     transform="scale(0.26458333)"
     id="path817"
     sodipodi:nodetypes="ssssssssss" />
  <path
     d="M 9.1372357,5.387532 C 8.5261062,5.3002241 7.5984991,5.7149232 7.1183257,6.3042264 7.2165434,5.9113573 7.6421511,5.2674889 8.1659764,4.9728369 c 0,0 -0.2619127,0.3273911 -0.1527825,0.3819562 0.1636953,0.087308 0.5893035,-0.5893033 1.1458679,-0.6111294 0,0 -0.4146952,0.1964342 -0.3273909,0.3492163 0.065478,0.098218 0.3492171,-0.1309561 0.818477,-0.1309561 0.5893031,0 1.1131301,0.3601302 1.3641291,0.6438682 C 10.599581,5.4857491 9.83567,5.6931001 9.6064959,5.8895312 9.2572791,5.6276182 8.5915845,5.6603582 8.2096283,6.1077914 7.7294554,6.6534435 7.4348036,7.2863989 7.3584122,7.4828329 7.1947168,7.3518769 7.0419347,7.2318339 6.9437174,7.1554428 6.856413,7.0899647 6.7800219,7.0572257 6.6927176,7.0244858 7.1510648,6.3806175 8.0677592,5.4311841 9.1372357,5.387532 Z M 2.7422014,3.5432303 C 2.6767233,2.7684053 3.0368533,2.3427972 3.2005486,2.1681887 3.5606785,1.7862328 4.0517648,1.5788852 4.7938507,1.6116243 5.9397186,1.6771021 6.496283,2.4628405 6.496283,3.3031437 c 0,0.4474341 -0.2291735,1.0367379 -0.5565644,1.4077801 L 5.8742406,4.6454477 C 5.6559799,4.4490117 5.3504151,4.198012 5.1539806,3.9033602 5.5468496,3.3249697 5.3831542,2.4301014 4.6738075,2.4301014 4.2263732,2.4301014 3.8662433,2.8884485 4.0190257,3.445013 3.9535477,3.6960127 3.9208085,4.0234035 3.9644606,4.2634906 3.4515483,4.0015774 3.2878529,3.6523606 3.1896356,3.3467958 3.0586792,3.6087084 2.971375,3.9688384 3.0695923,4.3180556 3.0914183,4.3507946 2.7967667,4.0888816 2.7422014,3.5432303 Z M 3.0368533,4.9400979 C 2.9822882,5.125619 2.3165934,5.3220541 1.9892025,5.6494451 2.4802888,5.5512271 2.7094624,5.6276134 2.7967667,5.8349662 2.8513317,5.9877483 2.7749406,6.1841834 2.7422016,6.4133565 2.905897,6.2278354 3.4624614,5.8567922 3.8771565,5.7694882 3.7789392,5.7367453 3.5279396,5.6821803 3.4297223,5.6821803 3.7243741,5.3329632 4.3791557,5.2238332 4.7392856,5.3002241 4.5101121,5.278402 4.0517649,5.4202672 3.8662434,5.5621362 4.0299388,5.5948792 4.1827213,5.6276124 4.3136776,5.6821803 4.0954171,5.7694882 3.8225914,6.0313964 3.7243741,6.3042226 4.0081128,6.1077875 4.5755903,6.1514405 4.6738075,6.5661347 4.7392852,6.8498738 4.5428512,7.0899609 4.4446339,7.1445259 c 0.087304,0.021822 0.2837387,0 0.3601299,-0.054565 -0.032739,0.120043 -0.1964345,0.3164772 -0.3164777,0.3492161 0.2946516,0 0.7202597,-0.196434 0.8403031,-0.4801731 0,0 -0.1855215,0.065476 -0.2619127,-0.021823 -0.087304,-0.087308 0.032739,-0.4474342 0.032739,-0.4474342 0,0 -0.1200433,0.1527821 -0.2182606,0.065476 -0.098217,-0.098216 0.032739,-0.4256073 0.087304,-0.4910853 -0.098217,-0.032743 -0.3601296,-0.065476 -0.4801728,-0.054565 0.3273909,-0.1200431 1.0694768,-0.1855211 1.1458679,-0.032743 0.065478,0.1200431 -0.098218,0.3492171 -0.098218,0.3492171 0.1309564,-0.021822 0.5129123,0 0.6438687,0.1527821 0.1309564,0.1636952 0.054565,0.3819562 0.054565,0.3819562 C 6.5290219,6.7080028 6.7909346,6.2496557 6.7254564,5.7913084 6.6927174,5.8895255 6.561761,6.0423076 6.4308046,6.0750466 6.4526306,5.9222645 6.3325873,5.8458734 6.23437,5.8131345 6.2889351,5.5293953 6.1688921,5.1692652 5.7541969,4.776397 5.4049802,4.4271856 4.7501985,3.9688384 4.7829377,3.3686218 4.6847204,3.4995782 4.5974162,3.8815342 4.6956334,4.0888816 4.9793722,4.4162727 5.5795886,4.7764028 5.7323712,5.332967 5.4704584,4.6781848 4.1936342,4.1652729 4.2372864,3.2704046 4.0735909,3.4341 3.9753736,4.0779686 4.10633,4.4053597 4.3573296,4.5581417 4.5646771,4.7982289 4.5974162,5.0274019 4.3682426,4.5035767 3.4297222,4.4053597 3.1678096,3.7833169 c -0.065478,0.2291736 -0.032739,0.5129127 0.098218,0.6875208 0,0 -0.2291736,-0.087308 -0.7202599,-0.065476 0.1746084,0.054565 0.5238253,0.3492171 0.4910863,0.5347382 z m 2.6518656,0.7529993 c -0.2837387,0 -0.3601298,-0.2182611 -0.4256079,-0.4474342 0.3273907,0.141869 0.4256079,0.4474342 0.4256079,0.4474342 z m 3.579473,4.2779062 C 9.4646268,10.156524 9.9448,10.287481 10.184887,10.167437 10.032104,10.42935 9.3445834,10.789479 8.7116275,10.625785 8.1004982,10.462089 7.8276727,9.8836999 7.8276727,9.5126568 c -0.2946519,0.2946511 -0.2182607,0.7529972 0,0.9494322 C 7.5984991,10.396611 7.2383692,10.145611 7.172891,9.7090908 7.1183257,9.3271357 7.3365863,8.8906135 6.9437174,8.5413974 6.7145438,8.3231362 6.3325875,8.0284851 6.103414,7.853876 5.6123277,7.47192 5.7869362,7.1772687 5.6887189,6.9808337 5.6014148,6.8171387 5.3940672,6.7298346 5.2740239,6.5879655 5.1430675,6.4351825 5.1539806,6.2278354 5.2194589,6.1077914 c -0.021826,0.163696 0.098218,0.2946521 0.2619128,0.3601301 0.1855214,0.065476 0.3273907,0.021823 0.4910862,0.098217 0.1855215,0.1200441 0.098218,0.3928692 0.2291736,0.5129132 0.1200433,0.087308 0.4256081,-0.032743 0.6766079,0.1855211 0.2619127,0.2182605 0.8403029,0.6875217 1.0803899,0.8839558 0.4474337,0.3601301 0.905781,-0.054565 0.7529984,-0.4801732 0.4583473,0.2619121 0.5129125,1.0149114 0.1309564,1.2768245 0.3601299,0.087308 1.0039991,-0.087308 1.0039991,-0.5893043 0,-0.3164781 -0.2946521,-0.5456511 -0.4910862,-0.5783902 0.742085,-0.065476 1.375042,0.4474342 1.375042,1.1022154 -0.02183,0.6656954 -0.698435,1.1895196 -1.4623471,1.091303 z M 6.823674,8.6287014 6.878239,8.6832664 C 6.4853698,9.4908307 5.7432839,10.516654 4.3355034,10.516654 c -0.5129123,0 -0.9712595,-0.185522 -1.2986503,-0.425608 C 2.9168097,10.003739 2.8185925,9.9055259 2.7422012,9.7963948 v 0 0 C 2.6876362,9.7309187 2.643984,9.6763518 2.5894189,9.6108737 2.5239408,9.5235659 2.4693756,9.5235659 2.4366365,9.5781406 2.3711585,9.6763576 2.4912015,9.9928354 2.4912015,9.9928354 1.3780727,8.9451852 1.9455502,7.4064477 1.9673761,7.3409696 c 0.065478,-0.196434 0,-0.2291731 -0.065478,-0.196434 -0.098217,0.032743 -0.2182606,0.196434 -0.2182606,0.196434 C 1.7709415,6.4024492 2.633071,5.8349721 2.633071,5.8349721 l 0.021826,0.021822 C 2.7531143,6.0095772 2.600332,6.1841853 2.589419,6.7734885 2.7531144,6.5443125 3.396983,6.0968783 3.757113,5.9659223 3.6370697,6.1187053 3.5388524,6.3260524 3.5388524,6.6425306 c 0,0 0.2619126,-0.2946521 0.5893035,-0.2946521 0.087304,0 0.1636955,0.021822 0.2291736,0.054565 -1.2440852,1.2113464 -0.7202598,2.7173441 0.3273908,2.7173441 0.5893035,0 1.178607,-0.6547822 1.4296067,-1.1022155 0.1855214,0.1636951 0.4910861,0.4256082 0.709347,0.6111293 z"
     style="fill:#5df4fe;stroke-width:0.10913;fill-opacity:1"
     id="path1" />
</svg>
