<?xml version="1.0" encoding="UTF-8" standalone="no"?>
<svg
   width="48"
   height="48"
   viewBox="0 0 12.7 12.7"
   version="1.1"
   id="svg4"
   sodipodi:docname="Godot.svg"
   inkscape:version="1.4.3 (0d15f75042, 2025-12-25)"
   xml:space="preserve"
   xmlns:inkscape="http://www.inkscape.org/namespaces/inkscape"
   xmlns:sodipodi="http://sodipodi.sourceforge.net/DTD/sodipodi-0.dtd"
   xmlns="http://www.w3.org/2000/svg"
   xmlns:svg="http://www.w3.org/2000/svg"><sodipodi:namedview
     id="namedview1"
     pagecolor="#8a8a8a"
     bordercolor="#000000"
     borderopacity="0.25"
     inkscape:showpageshadow="2"
     inkscape:pageopacity="0.0"
     inkscape:pagecheckerboard="0"
     inkscape:deskcolor="#d1d1d1"
     inkscape:zoom="12.520834"
     inkscape:cx="22.801996"
     inkscape:cy="31.547421"
     inkscape:window-width="2504"
     inkscape:window-height="1381"
     inkscape:window-x="0"
     inkscape:window-y="0"
     inkscape:window-maximized="1"
     inkscape:current-layer="layer1" /><defs
     id="defs8"><style
       id="current-color-scheme"
       type="text/css">
      .ColorScheme-Highlight {
        color:#5DF4FE;
      }
  </style></defs><path
     class="ColorScheme-Highlight"
     style="fill:#5df4fe"
     d="M 24,0 C 10.745166,0 0,10.745166 0,24 0,37.254834 10.745166,48 24,48 37.254834,48 48,37.254834 48,24 48,10.745166 37.254834,0 24,0 Z m 0,3 C 35.59798,3 45,12.40202 45,24 45,35.59798 35.59798,45 24,45 12.40202,45 3,35.59798 3,24 3,12.40202 12.40202,3 24,3 Z"
     transform="scale(0.26458333)"
     id="path817"
     sodipodi:nodetypes="ssssssssss" /><g
     inkscape:label="Layer 1"
     id="layer1"
     transform="matrix(0.01036347,0,0,0.01036347,1.0811299,-0.16287834)"><path
       id="path84-6"
       style="stroke-width:0.320312;fill:#5df4fe;fill-opacity:1;fill-rule:nonzero;stroke:none"
       d="M 75.17075 84.208152 C 64.98675 81.944152 54.919746 78.79196 45.474746 74.03796 C 45.690746 65.69796 46.226516 57.705769 47.319516 49.588769 C 43.651516 47.238769 39.796687 45.224228 36.370687 42.473228 C 32.889687 39.795228 29.328536 37.231889 26.176536 34.099889 C 19.879536 38.264889 13.217249 42.18069 6.3512486 45.63569 C -1.0497514 37.67069 -7.964787 29.06954 -13.617787 19.44954 C -9.364787 12.56954 -4.9234043 6.115603 -0.12940425 -0.0043969875 L 0.0023650291 -0.0043969875 L 0.0023650291 -47.513212 L 0.0023650291 -53.550641 L 0.0023650291 -59.037035 L 0.014344055 -59.037035 C 0.018276396 -59.037112 0.022389918 -59.036929 0.02632308 -59.037035 L 0.02632308 -59.025056 L 0.038302106 -59.025056 L 0.038302106 -59.013077 C 0.18430602 -58.740831 0.31148848 -57.365603 0.457568 -57.108412 L 0.46954702 -57.096433 L 0.48152605 -57.084454 L 0.48152605 -57.072475 L 0.49350508 -57.072475 L 0.5054841 -57.060496 L 36.706099 -60.558371 C 39.585099 -60.836371 41.822787 -63.134807 42.024787 -66.020807 L 43.019046 -80.263868 L 71.014028 -82.264365 L 72.918693 -69.350976 C 73.342693 -66.478976 75.850479 -64.307806 78.752479 -64.307806 L 116.94161 -64.307806 C 119.84461 -64.307806 122.3514 -66.478976 122.7754 -69.350976 L 124.68006 -82.264365 L 152.67505 -80.263868 L 153.6693 -66.020807 C 153.8713 -63.135807 156.10899 -60.836371 158.98799 -60.558371 L 195.16465 -57.060496 L 195.17663 -57.060496 L 195.17663 -57.072475 L 195.18861 -57.072475 L 195.20059 -57.084454 L 195.21256 -57.096433 C 195.39839 -57.374684 195.66442 -58.943772 195.67975 -59.037035 L 195.67975 -54.329278 L 195.69173 -54.329278 L 195.69173 -0.0043969875 L 195.8235 -0.0043969875 C 200.6185 6.115603 205.05688 12.56954 209.31188 19.44954 C 203.66088 29.06954 196.74384 37.67069 189.34284 45.63569 C 182.47884 42.18069 175.81456 38.264889 169.51756 34.099889 C 166.36656 37.231889 162.8094 39.795228 159.3234 42.473228 C 155.8984 45.224228 152.03558 47.238769 148.37458 49.588769 C 149.46458 57.705769 150.01432 65.69796 150.23132 74.03796 C 140.78532 78.79196 130.71234 81.944152 120.52334 84.208152 C 116.45534 77.371152 112.73066 69.96776 109.49066 62.72976 C 105.64866 63.37176 101.78392 63.606145 97.91892 63.652145 L 97.847045 63.652145 L 97.835066 63.652145 C 97.828973 63.652707 97.805254 63.651395 97.799129 63.652145 C 97.793036 63.652707 97.781171 63.652145 97.775171 63.652145 C 93.903171 63.606145 90.046433 63.37176 86.203433 62.72976 C 82.965433 69.96776 79.24475 77.371152 75.17075 84.208152 z M 46.540879 -2.1606216 C 58.588879 -2.1606216 68.354685 -11.918448 68.354685 -23.962448 C 68.354685 -36.014448 58.588879 -45.776253 46.540879 -45.776253 C 34.498879 -45.776253 24.727074 -36.014448 24.727074 -23.962448 C 24.727074 -11.918448 34.498879 -2.1606216 46.540879 -2.1606216 z M 149.16519 -2.1606216 C 161.20619 -2.1606216 170.96702 -11.918448 170.96702 -23.962448 C 170.96702 -36.014448 161.20619 -45.776253 149.16519 -45.776253 C 137.11519 -45.776253 127.33941 -36.014448 127.33941 -23.962448 C 127.33941 -11.918448 137.11519 -2.1606216 149.16519 -2.1606216 z M 97.847045 -14.918284 C 101.72505 -14.918284 104.87873 -17.783104 104.87873 -21.303104 L 104.87873 -41.379951 C 104.87873 -44.902951 101.72505 -47.764772 97.847045 -47.764772 C 93.969045 -47.764772 90.827337 -44.902951 90.827337 -41.379951 L 90.827337 -21.303104 C 90.827337 -17.783104 93.969045 -14.918284 97.847045 -14.918284 z "
       transform="matrix(4.1626111,0,0,-4.1626111,104.69892,525.90698)" /><path
       d="m 0,0 -1.121,-16.063 c -0.135,-1.936 -1.675,-3.477 -3.611,-3.616 l -38.555,-2.751 c -0.094,-0.007 -0.188,-0.01 -0.281,-0.01 -1.916,0 -3.569,1.406 -3.852,3.33 l -2.211,14.994 H -81.09 l -2.211,-14.994 c -0.297,-2.018 -2.101,-3.469 -4.133,-3.32 l -38.555,2.751 c -1.936,0.139 -3.476,1.68 -3.611,3.616 L -130.721,0 -163.268,3.138 c 0.015,-3.498 0.06,-7.33 0.06,-8.093 0,-34.374 43.605,-50.896 97.781,-51.086 h 0.066 0.067 c 54.176,0.19 97.766,16.712 97.766,51.086 0,0.777 0.047,4.593 0.063,8.093 z"
       style="stroke-width:0.320312;fill:#5df4fe;fill-opacity:1;fill-rule:nonzero;stroke:none"
       id="path88-5"
       inkscape:connector-curvature="0"
       transform="matrix(4.1626111,0,0,-4.1626111,784.07145,817.24283)" /><path
       d="m 0,0 c 0,-7.994 -6.479,-14.473 -14.479,-14.473 -7.996,0 -14.479,6.479 -14.479,14.473 0,7.994 6.483,14.479 14.479,14.479 C -6.479,14.479 0,7.994 0,0"
       style="stroke-width:0.320312;fill:#5df4fe;fill-opacity:1;fill-rule:nonzero;stroke:none"
       id="path96-2"
       inkscape:connector-curvature="0"
       transform="matrix(4.1626111,0,0,-4.1626111,367.36685,631.05679)" /><path
       d="m 0,0 c 0,-7.994 6.477,-14.473 14.471,-14.473 8.002,0 14.479,6.479 14.479,14.473 0,7.994 -6.477,14.479 -14.479,14.479 C 6.477,14.479 0,7.994 0,0"
       style="stroke-width:0.320312;fill:#5df4fe;fill-opacity:1;fill-rule:nonzero;stroke:none"
       id="path108-9"
       inkscape:connector-curvature="0"
       transform="matrix(4.1626111,0,0,-4.1626111,656.64057,631.05679)" /></g></svg>
