<?xml version="1.0" encoding="UTF-8" standalone="no"?>
<svg
   width="48"
   height="48"
   viewBox="0 0 12.7 12.7"
   version="1.1"
   id="svg4"
   sodipodi:docname="O.svg"
   inkscape:version="1.3.2 (091e20ef0f, 2023-11-25, custom)"
   xml:space="preserve"
   xmlns:inkscape="http://www.inkscape.org/namespaces/inkscape"
   xmlns:sodipodi="http://sodipodi.sourceforge.net/DTD/sodipodi-0.dtd"
   xmlns="http://www.w3.org/2000/svg"
   xmlns:svg="http://www.w3.org/2000/svg"><sodipodi:namedview
     id="namedview6"
     pagecolor="#ffffff"
     bordercolor="#000000"
     borderopacity="0.25"
     inkscape:showpageshadow="2"
     inkscape:pageopacity="0.0"
     inkscape:pagecheckerboard="0"
     inkscape:deskcolor="#d1d1d1"
     showgrid="false"
     inkscape:zoom="9.4827433"
     inkscape:cx="25.045495"
     inkscape:cy="30.792777"
     inkscape:window-width="2011"
     inkscape:window-height="1219"
     inkscape:window-x="0"
     inkscape:window-y="0"
     inkscape:window-maximized="1"
     inkscape:current-layer="g2" /><defs
     id="defs8"><rect
       x="0"
       y="0"
       width="48"
       height="48"
       id="rect1" /><style
       id="current-color-scheme"
       type="text/css">
      .ColorScheme-Highlight {
        color:#5beedc;
      }
  </style><radialGradient
       id="radial-gradient-7"
       cx="578.89026"
       cy="473.31943"
       r="353.94183"
       gradientTransform="matrix(0.01225107,0,0,0.01344018,0.08277413,-0.35622249)"
       gradientUnits="userSpaceOnUse"><stop
         offset="0"
         stop-color="#c2c0c2"
         id="stop372" /><stop
         offset="1"
         stop-color="#ebebeb"
         id="stop374" /></radialGradient><rect
       x="0"
       y="0"
       width="48"
       height="48"
       id="rect2" /><rect
       x="0"
       y="0"
       width="48"
       height="48"
       id="rect3" /><rect
       x="0"
       y="0"
       width="48"
       height="48"
       id="rect4" /><rect
       x="0"
       y="0"
       width="48"
       height="48"
       id="rect5" /><rect
       x="0"
       y="0"
       width="48"
       height="48"
       id="rect6" /><rect
       x="0"
       y="0"
       width="48"
       height="48"
       id="rect7" /><rect
       x="0"
       y="0"
       width="48"
       height="48"
       id="rect8" /><rect
       x="0"
       y="0"
       width="48"
       height="48"
       id="rect9" /><rect
       x="0"
       y="0"
       width="48"
       height="48"
       id="rect10" /><rect
       x="0"
       y="0"
       width="48"
       height="48"
       id="rect11" /><rect
       x="0"
       y="0"
       width="48"
       height="48"
       id="rect12" /><rect
       x="0"
       y="0"
       width="48"
       height="48"
       id="rect13" /><rect
       x="0"
       y="0"
       width="48"
       height="48"
       id="rect14" /><rect
       x="0"
       y="0"
       width="48"
       height="48"
       id="rect15" /><rect
       x="0"
       y="0"
       width="48"
       height="48"
       id="rect16" /><rect
       x="0"
       y="0"
       width="48"
       height="48"
       id="rect17" /></defs><path
     class="ColorScheme-Highlight"
     style="fill:#5df4fe"
     d="M 24,0 C 10.745166,0 0,10.745166 0,24 0,37.254834 10.745166,48 24,48 37.254834,48 48,37.254834 48,24 48,10.745166 37.254834,0 24,0 Z m 0,3 C 35.59798,3 45,12.40202 45,24 45,35.59798 35.59798,45 24,45 12.40202,45 3,35.59798 3,24 3,12.40202 12.40202,3 24,3 Z"
     id="path817"
     inkscape:connector-curvature="0"
     sodipodi:nodetypes="ssssssssss"
     transform="scale(0.26458333)" /><g
     inkscape:groupmode="layer"
     id="g2"
     inkscape:label="Layer 1 copy"
     style="display:inline"><path
       d="m 23.232001,20.668557 h 1.514664 q 0.682666,0 0.959998,-0.277333 0.298667,-0.298666 0.298667,-0.981331 v -6.506657 q 0,-0.682665 -0.298667,-0.959998 -0.277332,-0.298667 -0.959998,-0.298667 h -1.514664 q -0.682666,0 -0.959999,0.298667 -0.277333,0.277333 -0.277333,0.959998 v 6.506657 q 0,0.682665 0.277333,0.981331 0.277333,0.277333 0.959999,0.277333 z m 1.962663,2.346663 h -2.389329 q -1.685331,0 -2.602663,-0.895998 -0.917332,-0.895999 -0.917332,-2.58133 v -6.762656 q 0,-1.68533 0.917332,-2.581329 0.917332,-0.8959985 2.602663,-0.8959985 h 2.389329 q 1.685331,0 2.602663,0.8959985 0.917332,0.895999 0.917332,2.581329 v 6.762656 q 0,1.685331 -0.917332,2.58133 -0.917332,0.895998 -2.602663,0.895998 z"
       id="text2"
       style="-inkscape-font-specification:'Rajdhani Bold';fill:#5df4fe;stroke-width:0.145663;stroke-linecap:square;stroke-linejoin:bevel"
       transform="matrix(0.57216831,0,0,0.57216831,-7.3820444,-2.8942812)"
       aria-label="O" /></g><g
     inkscape:groupmode="layer"
     id="g3"
     inkscape:label="Layer 1 copy"
     style="display:inline"><text
       xml:space="preserve"
       transform="matrix(0.57216831,0,0,0.57216831,-7.3820444,-2.8942812)"
       id="text3"
       style="font-style:normal;font-variant:normal;font-weight:bold;font-stretch:normal;font-size:21.3333px;line-height:1.7;font-family:Rajdhani;-inkscape-font-specification:'Rajdhani Bold';text-align:center;letter-spacing:6.08px;word-spacing:0.03px;writing-mode:lr-tb;text-orientation:sideways;white-space:pre;shape-inside:url(#rect17);display:inline;fill:#5df4fe;fill-opacity:1;stroke:none;stroke-width:0.145663;stroke-linecap:square;stroke-linejoin:bevel"
       x="0"
       y="0"><tspan
         x="18.112009"
         y="23.01522"
         id="tspan1">O</tspan></text></g></svg>
