<?xml version="1.0" encoding="UTF-8" standalone="no"?>
<svg
   width="48"
   height="48"
   viewBox="0 0 12.7 12.7"
   version="1.1"
   id="svg4"
   sodipodi:docname="Opera_GX.svg"
   inkscape:version="1.4.3 (0d15f75042, 2025-12-25)"
   xmlns:inkscape="http://www.inkscape.org/namespaces/inkscape"
   xmlns:sodipodi="http://sodipodi.sourceforge.net/DTD/sodipodi-0.dtd"
   xmlns="http://www.w3.org/2000/svg"
   xmlns:svg="http://www.w3.org/2000/svg">
  <sodipodi:namedview
     id="namedview1"
     pagecolor="#ffffff"
     bordercolor="#000000"
     borderopacity="0.25"
     inkscape:showpageshadow="2"
     inkscape:pageopacity="0.0"
     inkscape:pagecheckerboard="0"
     inkscape:deskcolor="#d1d1d1"
     inkscape:zoom="17.707133"
     inkscape:cx="28.350158"
     inkscape:cy="25.526437"
     inkscape:window-width="2504"
     inkscape:window-height="1381"
     inkscape:window-x="0"
     inkscape:window-y="0"
     inkscape:window-maximized="1"
     inkscape:current-layer="svg4"
     showguides="true" />
  <defs
     id="defs8">
    <style
       id="current-color-scheme"
       type="text/css">
      .ColorScheme-Highlight {
        color:#5DF4FE;
      }
  </style>
  </defs>
  <path
     class="ColorScheme-Highlight"
     style="fill:#5df4fe"
     d="M 24,0 C 10.745166,0 0,10.745166 0,24 0,37.254834 10.745166,48 24,48 37.254834,48 48,37.254834 48,24 48,10.745166 37.254834,0 24,0 Z m 0,3 C 35.59798,3 45,12.40202 45,24 45,35.59798 35.59798,45 24,45 12.40202,45 3,35.59798 3,24 3,12.40202 12.40202,3 24,3 Z"
     transform="scale(0.26458333)"
     id="path817"
     sodipodi:nodetypes="ssssssssss" />
  <path
     d="M 9.2158053,9.5908123 C 8.7166256,9.9201957 8.1459483,10.094763 7.563922,10.094763 c -0.9527517,0 -1.856069,-0.4661097 -2.4783951,-1.2787808 -0.00222,-0.00277 -0.00433,-0.00536 -0.00655,-0.00815 C 4.6016658,8.2412762 4.316604,7.4089679 4.2969508,6.5293909 L 4.2968397,6.3230071 C 4.3165988,5.4382359 4.6016525,4.6059927 5.0854126,4.031375 5.7078202,3.2187037 6.6112677,2.7525941 7.5639705,2.7525941 c 0.5821078,0 1.1528827,0.1745672 1.6523721,0.5041624 0.8912514,0.8079819 1.4024324,1.9610926 1.4024324,3.166992 0,1.205997 -0.511278,2.3592052 -1.402758,3.1671549 M 6.1763558,10.682271 C 3.9120786,10.575453 2.1382375,8.7048945 2.1382375,6.4236833 c 0,-2.3509013 1.9021491,-4.2636342 4.2444206,-4.2636342 9.897e-4,0 0.010657,1.116e-4 0.011766,1.116e-4 0.3708718,0.00134 0.7365169,0.051455 1.0886148,0.146885 C 6.4216163,2.3324941 5.4235986,2.8583139 4.7402122,3.7509009 4.198404,4.3939225 3.8750452,5.3278023 3.8530635,6.3178741 V 6.534288 c 0.021978,0.9828911 0.3440054,1.9150124 0.8838106,2.5581808 0.6895576,0.8980579 1.6865657,1.4223132 2.746409,1.4477622 -0.4213647,0.114294 -0.8684885,0.162958 -1.3070804,0.141975 M 9.5004862,2.9125729 C 8.6459843,2.1437672 7.543464,1.7180714 6.3911349,1.7137077 c -0.00145,-1.116e-4 -0.011323,-2.233e-4 -0.012655,-2.233e-4 -2.5829302,0 -4.6843801,2.1130106 -4.6843801,4.710107 0,2.5200786 1.9596273,4.5866836 4.4616324,4.7045706 0.073818,0.0034 0.14808,0.0053 0.2227804,0.0053 1.1531107,0 2.2615091,-0.42537 3.1205863,-1.1979693 l 9.802e-4,-6.776e-4 C 10.493119,9.0417289 11.062689,7.7619382 11.062689,6.4234974 c 0,-1.3382618 -0.569456,-2.618101 -1.5622631,-3.5110461"
     fill="#fa1e4e"
     id="path1"
     style="fill:#5df4fe;fill-opacity:1;stroke-width:0.162827" />
  <path
     d="M 7.2368019,3.4566173 C 8.0724807,3.9962108 8.64788,5.1244579 8.64788,6.4296819 c 0,1.3052078 -0.5753993,2.4336174 -1.4110781,2.9730647 1.0667146,-0.088889 1.9132216,-1.3858236 1.9132216,-2.9730647 0,-1.5872736 -0.8465396,-2.8841609 -1.9132216,-2.9730646"
     fill="#fa1e4e"
     id="path2"
     style="fill:#5df4fe;fill-opacity:1;stroke-width:0.162827" />
</svg>
