<?xml version="1.0" encoding="UTF-8" standalone="no"?>
<svg
   width="48"
   height="48"
   viewBox="0 0 12.7 12.7"
   version="1.1"
   id="svg4"
   sodipodi:docname="S.svg"
   inkscape:version="1.3.2 (091e20ef0f, 2023-11-25, custom)"
   xml:space="preserve"
   xmlns:inkscape="http://www.inkscape.org/namespaces/inkscape"
   xmlns:sodipodi="http://sodipodi.sourceforge.net/DTD/sodipodi-0.dtd"
   xmlns="http://www.w3.org/2000/svg"
   xmlns:svg="http://www.w3.org/2000/svg"><sodipodi:namedview
     id="namedview6"
     pagecolor="#ffffff"
     bordercolor="#000000"
     borderopacity="0.25"
     inkscape:showpageshadow="2"
     inkscape:pageopacity="0.0"
     inkscape:pagecheckerboard="0"
     inkscape:deskcolor="#d1d1d1"
     showgrid="false"
     inkscape:zoom="9.4827433"
     inkscape:cx="24.570949"
     inkscape:cy="30.792777"
     inkscape:window-width="2000"
     inkscape:window-height="1219"
     inkscape:window-x="0"
     inkscape:window-y="0"
     inkscape:window-maximized="1"
     inkscape:current-layer="g2" /><defs
     id="defs8"><rect
       x="0"
       y="0"
       width="48"
       height="48"
       id="rect1" /><style
       id="current-color-scheme"
       type="text/css">
      .ColorScheme-Highlight {
        color:#5beedc;
      }
  </style><radialGradient
       id="radial-gradient-7"
       cx="578.89026"
       cy="473.31943"
       r="353.94183"
       gradientTransform="matrix(0.01225107,0,0,0.01344018,0.08277413,-0.35622249)"
       gradientUnits="userSpaceOnUse"><stop
         offset="0"
         stop-color="#c2c0c2"
         id="stop372" /><stop
         offset="1"
         stop-color="#ebebeb"
         id="stop374" /></radialGradient><rect
       x="0"
       y="0"
       width="48"
       height="48"
       id="rect2" /><rect
       x="0"
       y="0"
       width="48"
       height="48"
       id="rect3" /><rect
       x="0"
       y="0"
       width="48"
       height="48"
       id="rect4" /><rect
       x="0"
       y="0"
       width="48"
       height="48"
       id="rect5" /><rect
       x="0"
       y="0"
       width="48"
       height="48"
       id="rect6" /><rect
       x="0"
       y="0"
       width="48"
       height="48"
       id="rect7" /><rect
       x="0"
       y="0"
       width="48"
       height="48"
       id="rect8" /><rect
       x="0"
       y="0"
       width="48"
       height="48"
       id="rect9" /><rect
       x="0"
       y="0"
       width="48"
       height="48"
       id="rect10" /><rect
       x="0"
       y="0"
       width="48"
       height="48"
       id="rect11" /><rect
       x="0"
       y="0"
       width="48"
       height="48"
       id="rect12" /><rect
       x="0"
       y="0"
       width="48"
       height="48"
       id="rect13" /><rect
       x="0"
       y="0"
       width="48"
       height="48"
       id="rect14" /><rect
       x="0"
       y="0"
       width="48"
       height="48"
       id="rect15" /><rect
       x="0"
       y="0"
       width="48"
       height="48"
       id="rect16" /><rect
       x="0"
       y="0"
       width="48"
       height="48"
       id="rect17" /><rect
       x="0"
       y="0"
       width="48"
       height="48"
       id="rect18" /></defs><path
     class="ColorScheme-Highlight"
     style="fill:#5df4fe"
     d="M 24,0 C 10.745166,0 0,10.745166 0,24 0,37.254834 10.745166,48 24,48 37.254834,48 48,37.254834 48,24 48,10.745166 37.254834,0 24,0 Z m 0,3 C 35.59798,3 45,12.40202 45,24 45,35.59798 35.59798,45 24,45 12.40202,45 3,35.59798 3,24 3,12.40202 12.40202,3 24,3 Z"
     id="path817"
     inkscape:connector-curvature="0"
     sodipodi:nodetypes="ssssssssss"
     transform="scale(0.26458333)" /><g
     inkscape:groupmode="layer"
     id="g2"
     inkscape:label="Layer 1 copy"><path
       d="m 19.296012,19.516559 v -0.426666 q 0,-0.447999 0.447999,-0.447999 h 1.813331 q 0.447999,0 0.447999,0.447999 v 0.170666 q 0,0.810666 0.32,1.109332 0.319999,0.298666 1.173331,0.298666 h 1.002665 q 0.831999,0 1.151998,-0.319999 0.341333,-0.32 0.341333,-1.194665 v -0.256 q 0,-0.618665 -0.511999,-0.938665 -0.490666,-0.341333 -1.237331,-0.405333 -0.746666,-0.064 -1.621331,-0.234666 -0.853332,-0.192 -1.599998,-0.469332 Q 20.277344,16.55123 19.765345,15.719232 19.274679,14.8659 19.274679,13.543235 V 12.79657 q 0,-1.663998 0.938665,-2.58133 0.938665,-0.9173315 2.602663,-0.9173315 h 2.13333 q 1.68533,0 2.623995,0.9173315 0.938666,0.917332 0.938666,2.58133 v 0.405332 q 0,0.448 -0.448,0.448 h -1.81333 q -0.447999,0 -0.447999,-0.448 v -0.127999 q 0,-0.831999 -0.32,-1.130665 -0.319999,-0.298667 -1.173331,-0.298667 h -0.831999 q -0.874665,0 -1.194665,0.341333 -0.298666,0.32 -0.298666,1.279998 v 0.405333 q 0,1.002665 1.74933,1.151998 1.813331,0.149333 3.221329,0.725332 0.746665,0.32 1.237331,1.151998 0.511999,0.810666 0.511999,2.090664 v 0.725332 q 0,1.663997 -0.938665,2.581329 -0.938665,0.917332 -2.602662,0.917332 h -2.32533 q -1.663997,0 -2.602663,-0.917332 -0.938665,-0.917332 -0.938665,-2.581329 z"
       id="text2"
       style="-inkscape-font-specification:'Rajdhani Bold';fill:#5df4fe;stroke-width:0.145663;stroke-linecap:square;stroke-linejoin:bevel"
       transform="matrix(0.57216831,0,0,0.57216831,-7.3820444,-2.8942812)"
       aria-label="S" /></g></svg>
