<?xml version="1.0" encoding="UTF-8" standalone="no"?>
<svg
   width="48"
   height="48"
   viewBox="0 0 12.7 12.7"
   version="1.1"
   id="svg4"
   sodipodi:docname="slack.svg"
   inkscape:version="1.4 (e7c3feb100, 2024-10-09)"
   xmlns:inkscape="http://www.inkscape.org/namespaces/inkscape"
   xmlns:sodipodi="http://sodipodi.sourceforge.net/DTD/sodipodi-0.dtd"
   xmlns="http://www.w3.org/2000/svg"
   xmlns:svg="http://www.w3.org/2000/svg">
  <sodipodi:namedview
     id="namedview1"
     pagecolor="#ffffff"
     bordercolor="#000000"
     borderopacity="0.25"
     inkscape:showpageshadow="2"
     inkscape:pageopacity="0.0"
     inkscape:pagecheckerboard="0"
     inkscape:deskcolor="#d1d1d1"
     inkscape:zoom="19.979294"
     inkscape:cx="22.798603"
     inkscape:cy="16.967566"
     inkscape:window-width="2504"
     inkscape:window-height="1408"
     inkscape:window-x="0"
     inkscape:window-y="0"
     inkscape:window-maximized="1"
     inkscape:current-layer="svg4"
     showguides="true"
     inkscape:document-units="px">
    <sodipodi:guide
       position="211.66667,-198.96667"
       orientation="-1,0"
       id="guide2"
       inkscape:locked="false"
       inkscape:label=""
       inkscape:color="rgb(0,134,229)" />
    <sodipodi:guide
       position="6.35,16.374433"
       orientation="-1,0"
       id="guide3"
       inkscape:locked="false"
       inkscape:label=""
       inkscape:color="rgb(0,134,229)" />
    <sodipodi:guide
       position="2.301881,6.35"
       orientation="0,1"
       id="guide4"
       inkscape:locked="false"
       inkscape:label=""
       inkscape:color="rgb(0,134,229)" />
  </sodipodi:namedview>
  <defs
     id="defs8">
    <style
       id="current-color-scheme"
       type="text/css">
      .ColorScheme-Highlight {
        color:#5DF4FE;
      }
  </style>
  </defs>
  <path
     class="ColorScheme-Highlight"
     style="fill:#5df4fe"
     d="M 24,0 C 10.745166,0 0,10.745166 0,24 0,37.254834 10.745166,48 24,48 37.254834,48 48,37.254834 48,24 48,10.745166 37.254834,0 24,0 Z m 0,3 C 35.59798,3 45,12.40202 45,24 45,35.59798 35.59798,45 24,45 12.40202,45 3,35.59798 3,24 3,12.40202 12.40202,3 24,3 Z"
     transform="scale(0.26458333)"
     id="path817"
     sodipodi:nodetypes="ssssssssss" />
  <path
     d="M 5.1226874,1.6689956 C 4.6041351,1.6693754 4.1844636,2.0902001 4.1848469,2.6087524 4.1844675,3.1273047 4.6045175,3.5481255 5.1230707,3.5485092 H 6.0612945 V 2.6091356 C 6.0616739,2.0905829 5.641623,1.6697625 5.1226874,1.6689956 c 3.794e-4,0 3.794e-4,0 0,0 m 0,2.5065287 H 2.6215238 C 2.1029715,4.1759037 1.6829167,4.5967287 1.6833004,5.1152811 1.682533,5.6338342 2.1025882,6.0546542 2.6211405,6.0554211 H 5.1226874 C 5.6412398,6.0550417 6.0612945,5.6342166 6.0609108,5.1156643 6.0612907,4.5967287 5.6412398,4.1759075 5.1226874,4.1755243 Z M 7.6242339,11.068479 C 8.1427862,11.068099 8.5628405,10.647274 8.5624577,10.128722 8.5628371,9.6101704 8.1427862,9.1893484 7.6242339,9.1889654 H 6.6860101 v 0.9397566 c -3.794e-4,0.518169 0.4196707,0.93899 0.9382238,0.939757 z m 0,-2.5069126 H 10.12578 c 0.518553,-3.79e-4 0.938607,-0.421204 0.938223,-0.9397563 7.68e-4,-0.5185527 -0.419288,-0.9393731 -0.93784,-0.94014 H 7.6246167 C 7.1060644,6.68205 6.6860101,7.1028746 6.6863938,7.6214269 6.686014,8.1403624 7.1056808,8.5611834 7.6242339,8.5615664 Z M 1.6833004,7.6218101 C 1.6829206,8.1403624 2.1029715,8.5611834 2.6215238,8.5615664 3.1400761,8.5611874 3.5601313,8.1403624 3.5597476,7.6218101 V 6.6820534 H 2.6215238 C 2.1029715,6.6824332 1.6829167,7.1032574 1.6833004,7.6218101 Z m 2.5015465,0 v 2.5065279 c -7.674e-4,0.518553 0.4192882,0.939374 0.9378405,0.940141 0.5185524,-3.8e-4 0.9386071,-0.421205 0.9382234,-0.939757 V 7.6225766 C 6.0616782,7.1040243 5.641623,6.6832031 5.1230707,6.682437 c -0.5189356,0 -0.9386071,0.4208204 -0.9382238,0.9393731 0,0 0,3.799e-4 0,0 M 11.064003,5.1152811 C 11.064383,4.5967287 10.644333,4.1759075 10.12578,4.1755243 9.6072278,4.1759037 9.1871734,4.5967287 9.1875562,5.1152811 v 0.94014 H 10.12578 c 0.518553,-3.794e-4 0.938607,-0.4212045 0.938223,-0.94014 z m -2.5015453,0 V 2.6087524 C 8.5628371,2.0905829 8.1431699,1.6697625 7.6246167,1.6689956 7.1060644,1.6693754 6.6860101,2.0902001 6.6863938,2.6087524 v 2.5065287 c -7.674e-4,0.5185531 0.419287,0.9393731 0.9378401,0.94014 0.5185523,-3.794e-4 0.9386066,-0.4212045 0.9382238,-0.94014 z"
     style="fill:#5df4fe;stroke-width:0.00383261;fill-opacity:1"
     id="path1" />
</svg>
