<?xml version="1.0" encoding="UTF-8" standalone="no"?>
<svg
   width="48"
   height="48"
   viewBox="0 0 12.7 12.7"
   version="1.1"
   id="svg4"
   sodipodi:docname="X.svg"
   inkscape:version="1.3.2 (091e20ef0f, 2023-11-25, custom)"
   xml:space="preserve"
   xmlns:inkscape="http://www.inkscape.org/namespaces/inkscape"
   xmlns:sodipodi="http://sodipodi.sourceforge.net/DTD/sodipodi-0.dtd"
   xmlns="http://www.w3.org/2000/svg"
   xmlns:svg="http://www.w3.org/2000/svg"><sodipodi:namedview
     id="namedview6"
     pagecolor="#ffffff"
     bordercolor="#000000"
     borderopacity="0.25"
     inkscape:showpageshadow="2"
     inkscape:pageopacity="0.0"
     inkscape:pagecheckerboard="0"
     inkscape:deskcolor="#d1d1d1"
     showgrid="false"
     inkscape:zoom="9.4827433"
     inkscape:cx="24.992768"
     inkscape:cy="30.792777"
     inkscape:window-width="2008"
     inkscape:window-height="1219"
     inkscape:window-x="0"
     inkscape:window-y="0"
     inkscape:window-maximized="1"
     inkscape:current-layer="g3" /><defs
     id="defs8"><rect
       x="0"
       y="0"
       width="48"
       height="48"
       id="rect1" /><style
       id="current-color-scheme"
       type="text/css">
      .ColorScheme-Highlight {
        color:#5beedc;
      }
  </style><radialGradient
       id="radial-gradient-7"
       cx="578.89026"
       cy="473.31943"
       r="353.94183"
       gradientTransform="matrix(0.01225107,0,0,0.01344018,0.08277413,-0.35622249)"
       gradientUnits="userSpaceOnUse"><stop
         offset="0"
         stop-color="#c2c0c2"
         id="stop372" /><stop
         offset="1"
         stop-color="#ebebeb"
         id="stop374" /></radialGradient><rect
       x="0"
       y="0"
       width="48"
       height="48"
       id="rect2" /><rect
       x="0"
       y="0"
       width="48"
       height="48"
       id="rect3" /><rect
       x="0"
       y="0"
       width="48"
       height="48"
       id="rect4" /><rect
       x="0"
       y="0"
       width="48"
       height="48"
       id="rect5" /><rect
       x="0"
       y="0"
       width="48"
       height="48"
       id="rect6" /><rect
       x="0"
       y="0"
       width="48"
       height="48"
       id="rect7" /><rect
       x="0"
       y="0"
       width="48"
       height="48"
       id="rect8" /><rect
       x="0"
       y="0"
       width="48"
       height="48"
       id="rect9" /><rect
       x="0"
       y="0"
       width="48"
       height="48"
       id="rect10" /><rect
       x="0"
       y="0"
       width="48"
       height="48"
       id="rect11" /><rect
       x="0"
       y="0"
       width="48"
       height="48"
       id="rect12" /><rect
       x="0"
       y="0"
       width="48"
       height="48"
       id="rect13" /><rect
       x="0"
       y="0"
       width="48"
       height="48"
       id="rect14" /><rect
       x="0"
       y="0"
       width="48"
       height="48"
       id="rect15" /><rect
       x="0"
       y="0"
       width="48"
       height="48"
       id="rect16" /><rect
       x="0"
       y="0"
       width="48"
       height="48"
       id="rect17" /><rect
       x="0"
       y="0"
       width="48"
       height="48"
       id="rect18" /><rect
       x="0"
       y="0"
       width="48"
       height="48"
       id="rect19" /><rect
       x="0"
       y="0"
       width="48"
       height="48"
       id="rect20" /></defs><path
     class="ColorScheme-Highlight"
     style="fill:#5df4fe"
     d="M 24,0 C 10.745166,0 0,10.745166 0,24 0,37.254834 10.745166,48 24,48 37.254834,48 48,37.254834 48,24 48,10.745166 37.254834,0 24,0 Z m 0,3 C 35.59798,3 45,12.40202 45,24 45,35.59798 35.59798,45 24,45 12.40202,45 3,35.59798 3,24 3,12.40202 12.40202,3 24,3 Z"
     id="path817"
     inkscape:connector-curvature="0"
     sodipodi:nodetypes="ssssssssss"
     transform="scale(0.26458333)" /><g
     inkscape:groupmode="layer"
     id="g3"
     inkscape:label="Layer 1 copy"
     style="display:inline"><path
       d="m 21.183995,23.01522 h -2.111997 q -0.213333,0 -0.298666,-0.128 -0.08533,-0.149333 0,-0.341332 l 3.306661,-6.549323 -3.199995,-6.2293239 q -0.08533,-0.1706664 0,-0.3199995 0.08533,-0.1493331 0.298667,-0.1493331 h 2.047996 q 0.533333,0 0.703999,0.4479993 l 2.026664,4.5866592 h 0.08533 l 2.00533,-4.5866592 Q 26.26132,9.2979085 26.730653,9.2979085 h 2.090663 q 0.213333,0 0.298666,0.1706664 0.106667,0.1493331 0.02133,0.3199995 l -3.242661,6.2079906 3.306661,6.527989 q 0.106667,0.213333 0.02133,0.362666 -0.08533,0.128 -0.32,0.128 h -2.13333 q -0.447999,0 -0.618666,-0.426666 l -2.111996,-4.607993 h -0.08533 l -2.13333,4.607993 q -0.192,0.426666 -0.639999,0.426666 z"
       id="text3"
       style="-inkscape-font-specification:'Rajdhani Bold';fill:#5df4fe;stroke-width:0.145663;stroke-linecap:square;stroke-linejoin:bevel"
       transform="matrix(0.57216831,0,0,0.57216831,-7.3820444,-2.8942812)"
       aria-label="X" /></g><g
     inkscape:groupmode="layer"
     id="g2"
     inkscape:label="Layer 1 copy"
     style="display:inline"><text
       xml:space="preserve"
       transform="matrix(0.57216831,0,0,0.57216831,-7.3820444,-2.8942812)"
       id="text2"
       style="font-style:normal;font-variant:normal;font-weight:bold;font-stretch:normal;font-size:21.3333px;line-height:1.7;font-family:Rajdhani;-inkscape-font-specification:'Rajdhani Bold';text-align:center;letter-spacing:6.08px;word-spacing:0.03px;writing-mode:lr-tb;text-orientation:sideways;white-space:pre;shape-inside:url(#rect20);display:inline;fill:#5df4fe;fill-opacity:1;stroke:none;stroke-width:0.145663;stroke-linecap:square;stroke-linejoin:bevel"
       x="0"
       y="0"><tspan
         x="18.239999"
         y="23.01522"
         id="tspan1">X</tspan></text></g></svg>
